<mxfile host="app.diagrams.net" modified="2024-01-16T17:09:35.769Z" agent="Mozilla/5.0 (Windows NT 10.0; Win64; x64) AppleWebKit/537.36 (KHTML, like Gecko) Chrome/120.0.0.0 Safari/537.36" etag="l7cVp4LsWYE0Iyig5Zho" version="22.1.18" type="github">
  <diagram name="Page-1" id="UF1Crgd4uygOObGpyDa0">
    <mxGraphModel dx="2074" dy="1106" grid="1" gridSize="10" guides="1" tooltips="1" connect="1" arrows="1" fold="1" page="1" pageScale="1" pageWidth="850" pageHeight="1100" math="0" shadow="0">
      <root>
        <mxCell id="0" />
        <mxCell id="1" parent="0" />
        <mxCell id="JgmfEdyczE_XzKW3utyb-1" value="" style="rounded=0;whiteSpace=wrap;html=1;" vertex="1" parent="1">
          <mxGeometry x="370" y="255" width="1080" height="590" as="geometry" />
        </mxCell>
        <mxCell id="JgmfEdyczE_XzKW3utyb-2" value="&lt;font style=&quot;font-size: 14px;&quot;&gt;&lt;b&gt;VAP Virtual NetWork&lt;/b&gt;&lt;/font&gt;" style="text;html=1;strokeColor=none;fillColor=none;align=center;verticalAlign=middle;whiteSpace=wrap;rounded=0;" vertex="1" parent="1">
          <mxGeometry x="380" y="320" width="160" height="40" as="geometry" />
        </mxCell>
        <mxCell id="JgmfEdyczE_XzKW3utyb-3" value="" style="image;aspect=fixed;html=1;points=[];align=center;fontSize=12;image=img/lib/azure2/networking/Virtual_Networks.svg;" vertex="1" parent="1">
          <mxGeometry x="426.5" y="280" width="67" height="40" as="geometry" />
        </mxCell>
      </root>
    </mxGraphModel>
  </diagram>
</mxfile>
